<svg width="24" height="24" viewBox="0 0 24 24" fill="none" xmlns="http://www.w3.org/2000/svg">
<path fill-rule="evenodd" clip-rule="evenodd" d="M17.7002 4.19995H7.70019C7.14791 4.19995 6.70019 4.64767 6.70019 5.19995V17.2C6.70019 17.7522 7.14791 18.2 7.70019 18.2H17.7002C18.2525 18.2 18.7002 17.7522 18.7002 17.2V5.19995C18.7002 4.64767 18.2525 4.19995 17.7002 4.19995Z" stroke="#0D0D0D" stroke-width="1.5" stroke-linejoin="round"/>
<path d="M6.69992 8.90332V19.2001C6.69992 19.7523 7.14763 20.2001 7.69992 20.2001H15.5637C16.9685 20.2001 17.6208 19.5334 17.5208 18.2001" stroke="#0D0D0D" stroke-width="1.5" stroke-linejoin="round"/>
<path fill-rule="evenodd" clip-rule="evenodd" d="M12.7002 13.2C14.0809 13.2 15.2002 12.0807 15.2002 10.7C15.2002 9.31924 14.0809 8.19995 12.7002 8.19995C11.3195 8.19995 10.2002 9.31924 10.2002 10.7C10.2002 12.0807 11.3195 13.2 12.7002 13.2Z" stroke="#0D0D0D" stroke-width="1.5"/>
</svg>
