<svg width="24" height="16" viewBox="0 0 24 16" fill="none" xmlns="http://www.w3.org/2000/svg">
<path d="M2 15.5C1.64583 15.5 1.34917 15.38 1.11 15.14C0.87 14.9008 0.75 14.6042 0.75 14.25C0.75 13.8958 0.87 13.5992 1.11 13.36C1.34917 13.12 1.64583 13 2 13H22C22.3542 13 22.6508 13.12 22.89 13.36C23.13 13.5992 23.25 13.8958 23.25 14.25C23.25 14.6042 23.13 14.9008 22.89 15.14C22.6508 15.38 22.3542 15.5 22 15.5H2ZM2 9.25C1.64583 9.25 1.34917 9.13 1.11 8.89C0.87 8.65083 0.75 8.35417 0.75 8C0.75 7.64583 0.87 7.34875 1.11 7.10875C1.34917 6.86958 1.64583 6.75 2 6.75H22C22.3542 6.75 22.6508 6.86958 22.89 7.10875C23.13 7.34875 23.25 7.64583 23.25 8C23.25 8.35417 23.13 8.65083 22.89 8.89C22.6508 9.13 22.3542 9.25 22 9.25H2ZM2 3C1.64583 3 1.34917 2.88042 1.11 2.64125C0.87 2.40125 0.75 2.10417 0.75 1.75C0.75 1.39583 0.87 1.09875 1.11 0.85875C1.34917 0.619584 1.64583 0.5 2 0.5H22C22.3542 0.5 22.6508 0.619584 22.89 0.85875C23.13 1.09875 23.25 1.39583 23.25 1.75C23.25 2.10417 23.13 2.40125 22.89 2.64125C22.6508 2.88042 22.3542 3 22 3H2Z" fill="black"/>
</svg>
