<svg width="13" height="16" viewBox="0 0 13 16" fill="none" xmlns="http://www.w3.org/2000/svg">
<path d="M10.0416 10.2985V15.1662C10.0416 15.2288 10.025 15.2904 9.99344 15.3445C9.9619 15.3986 9.91656 15.4435 9.86204 15.4743C9.80752 15.5052 9.74578 15.5211 9.68312 15.5204C9.62046 15.5196 9.55913 15.5022 9.50538 15.47L6.49992 13.6666L3.49446 15.47C3.44066 15.5023 3.37926 15.5196 3.31654 15.5204C3.25382 15.5211 3.19203 15.5052 3.13749 15.4742C3.08295 15.4432 3.03762 15.3983 3.00613 15.344C2.97463 15.2898 2.95811 15.2282 2.95825 15.1654V10.2992C2.04177 9.56542 1.37583 8.56511 1.05245 7.43649C0.729074 6.30787 0.764229 5.10668 1.15306 3.9989C1.54189 2.89113 2.26519 1.93147 3.22302 1.25256C4.18084 0.573639 5.32589 0.208984 6.49992 0.208984C7.67395 0.208984 8.819 0.573639 9.77682 1.25256C10.7346 1.93147 11.458 2.89113 11.8468 3.9989C12.2356 5.10668 12.2708 6.30787 11.9474 7.43649C11.624 8.56511 10.9581 9.56542 10.0416 10.2992V10.2985ZM4.37492 11.1294V13.2898L6.49992 12.0148L8.62492 13.2898V11.1294C7.94977 11.4024 7.2282 11.5424 6.49992 11.5416C5.77164 11.5424 5.05007 11.4024 4.37492 11.1294ZM6.49992 10.1249C7.62709 10.1249 8.70809 9.67717 9.50512 8.88014C10.3022 8.08312 10.7499 7.00211 10.7499 5.87494C10.7499 4.74777 10.3022 3.66677 9.50512 2.86974C8.70809 2.07271 7.62709 1.62494 6.49992 1.62494C5.37275 1.62494 4.29174 2.07271 3.49472 2.86974C2.69769 3.66677 2.24992 4.74777 2.24992 5.87494C2.24992 7.00211 2.69769 8.08312 3.49472 8.88014C4.29174 9.67717 5.37275 10.1249 6.49992 10.1249Z" fill="black"/>
</svg>
