<svg width="17" height="9" viewBox="0 0 17 9" fill="none" xmlns="http://www.w3.org/2000/svg">
<path d="M15.2857 7.20093L15.8066 5.26601C15.8084 4.55003 15.7401 4.01869 15.6176 3.64013C15.4169 3.08923 15.0483 2.63165 14.4858 2.27285C13.7864 1.84234 12.877 1.50762 11.7511 1.28361C10.7294 1.06394 9.64208 0.945952 8.4891 0.93122C7.30607 0.930046 6.20494 1.03574 5.17667 1.24651C4.05262 1.47208 3.1433 1.80269 2.44553 2.22325C1.83078 2.56958 1.42598 3.02986 1.19249 3.62013C1.08938 3.92491 1.01801 4.33828 1.09173 4.52524C1.06486 4.57178 0.954661 4.89769 1.058 5.65731C1.10862 5.9904 1.10386 6.32867 2.14988 7.33137L6.88674 5.89694C6.77573 5.3439 6.68965 4.919 6.68405 4.59537C7.15379 4.37143 7.72136 4.27556 8.38718 4.28398C8.96095 4.2875 9.46088 4.38331 10.1069 4.69503L10.1566 6.38281L15.2857 7.20093Z" stroke="white" stroke-width="1.5"/>
</svg>
