<svg width="20" height="20" viewBox="0 0 20 20" fill="none" xmlns="http://www.w3.org/2000/svg">
<path d="M3.25 14.8335V10.4168C3.09722 10.5696 2.9375 10.7188 2.77083 10.8643C2.60417 11.0104 2.40972 11.1738 2.1875 11.3543C2.07639 11.2016 1.96528 11.0557 1.85417 10.9168C1.74306 10.7779 1.625 10.6529 1.5 10.5418C2.11111 10.1113 2.66333 9.63211 3.15667 9.10433C3.64944 8.57655 4.09722 7.99322 4.5 7.35433L5.39583 7.7085C5.20139 8.04183 5.01028 8.34044 4.8225 8.60433C4.63528 8.86822 4.44444 9.11127 4.25 9.3335V14.8335H3.25ZM8.1875 14.8335C8.02083 14.8335 7.85083 14.8302 7.6775 14.8235C7.50361 14.8163 7.32639 14.7988 7.14583 14.771C7.09028 14.5349 7.03472 14.3474 6.97917 14.2085C6.92361 14.0696 6.86111 13.9446 6.79167 13.8335H8.52083C8.59028 13.8335 8.6425 13.8163 8.6775 13.7818C8.71194 13.7468 8.72917 13.6946 8.72917 13.6252V9.54183H5.29167V8.62516H11.2917V9.56266H9.72917V13.7502C9.72917 13.9863 9.70139 14.1704 9.64583 14.3027C9.59028 14.4343 9.5 14.5418 9.375 14.6252C9.26389 14.6946 9.11806 14.7468 8.9375 14.7818C8.75694 14.8163 8.50694 14.8335 8.1875 14.8335ZM2.1875 8.29183C2.07639 8.16683 1.97583 8.0385 1.88583 7.90683C1.79528 7.77461 1.70139 7.63905 1.60417 7.50016C2.17361 7.11127 2.65972 6.72572 3.0625 6.3435C3.46528 5.96183 3.80556 5.56266 4.08333 5.146L5.02083 5.521C4.65972 6.03488 4.24306 6.521 3.77083 6.97933C3.29861 7.43766 2.77083 7.87516 2.1875 8.29183ZM5.72917 6.72933V5.81266H11L10.9583 6.72933H5.72917ZM14.625 13.0418C15.0139 13.0418 15.3925 12.9516 15.7608 12.771C16.1286 12.5904 16.4653 12.3335 16.7708 12.0002V9.79183C16.4514 9.8335 16.1561 9.88211 15.885 9.93766C15.6144 9.99322 15.3611 10.0557 15.125 10.1252C14.5 10.3196 14.0314 10.5627 13.7192 10.8543C13.4064 11.146 13.25 11.4863 13.25 11.8752C13.25 12.2363 13.375 12.521 13.625 12.7293C13.875 12.9377 14.2083 13.0418 14.625 13.0418ZM14.1458 14.4585C13.3542 14.4585 12.7292 14.2329 12.2708 13.7818C11.8125 13.3302 11.5833 12.7154 11.5833 11.9377C11.5833 11.2154 11.8125 10.6252 12.2708 10.1668C12.7292 9.7085 13.4653 9.34044 14.4792 9.06266C14.7986 8.97933 15.1494 8.90294 15.5317 8.8335C15.9133 8.76405 16.3264 8.70155 16.7708 8.646C16.7431 7.99322 16.5903 7.51738 16.3125 7.2185C16.0347 6.92016 15.6042 6.771 15.0208 6.771C14.6597 6.771 14.3022 6.83711 13.9483 6.96933C13.5939 7.101 13.1389 7.3335 12.5833 7.66683L11.9167 6.50016C12.375 6.15294 12.9133 5.87155 13.5317 5.656C14.1494 5.441 14.7778 5.3335 15.4167 5.3335C16.4028 5.3335 17.1528 5.63905 17.6667 6.25016C18.1806 6.86127 18.4375 7.75016 18.4375 8.91683V14.271H17.0417L16.9167 13.3335C16.5278 13.6807 16.1008 13.9552 15.6358 14.1568C15.1703 14.3579 14.6736 14.4585 14.1458 14.4585Z" fill="black"/>
</svg>
