<svg width="24" height="24" viewBox="0 0 24 24" fill="none" xmlns="http://www.w3.org/2000/svg">
<path d="M18.1001 5.69995H6.1001C5.54781 5.69995 5.1001 6.14767 5.1001 6.69995V16.8875C5.1001 17.4397 5.54781 17.8875 6.1001 17.8875H18.1001C18.6524 17.8875 19.1001 17.4397 19.1001 16.8875V6.69995C19.1001 6.14767 18.6524 5.69995 18.1001 5.69995Z" stroke="black" stroke-width="1.5"/>
<path d="M15.3501 10.8562C16.1267 10.8562 16.7563 10.2266 16.7563 9.44995C16.7563 8.6733 16.1267 8.0437 15.3501 8.0437C14.5734 8.0437 13.9438 8.6733 13.9438 9.44995C13.9438 10.2266 14.5734 10.8562 15.3501 10.8562Z" stroke="black" stroke-width="1.5"/>
<path d="M5.1001 15.6541L9.24264 9.85449L12.9511 14.9776L14.8981 13.1234L18.8799 17.3033" stroke="black" stroke-width="1.5" stroke-linecap="round" stroke-linejoin="round"/>
</svg>
