<svg width="9" height="13" viewBox="0 0 9 13" fill="none" xmlns="http://www.w3.org/2000/svg">
<path d="M6.01172 4.45312C5.92057 5.29948 5.5918 5.98307 5.02539 6.50391C4.45898 7.02474 3.60938 7.36979 2.47656 7.53906L6.70508 12.5H4.6543L0.435547 7.56836L0.630859 6.14258H1.5293C1.84831 6.14258 2.12826 6.12956 2.36914 6.10352C2.61003 6.07747 2.81836 6.04167 2.99414 5.99609C3.17643 5.94401 3.33268 5.88216 3.46289 5.81055C3.5931 5.73242 3.71354 5.64453 3.82422 5.54688C4.11068 5.27344 4.29622 4.90885 4.38086 4.45312H0.435547V3.02734H4.36133C4.30924 2.77344 4.22461 2.55859 4.10742 2.38281C3.99674 2.20052 3.85026 2.03776 3.66797 1.89453C3.48568 1.7513 3.24479 1.64714 2.94531 1.58203C2.65234 1.51693 2.25846 1.48438 1.76367 1.48438H0.435547V0.0585938H8.87305V1.48438H5.12305C5.35091 1.64714 5.53971 1.86198 5.68945 2.12891C5.83919 2.39583 5.94336 2.69531 6.00195 3.02734H8.87305V4.45312H6.01172Z" fill="black"/>
</svg>
