<svg width="24" height="24" viewBox="0 0 24 24" fill="none" xmlns="http://www.w3.org/2000/svg">
<path fill-rule="evenodd" clip-rule="evenodd" d="M11.7754 6.20166C13.4693 6.20166 14.8584 7.7196 14.8584 9.24964C14.8584 10.0827 14.4513 11.0645 13.807 11.7862C14.8548 12.2704 15.9521 13.0315 16.6137 13.908C17.6751 15.314 17.4873 16.087 17.4873 17.4223C17.4873 20.1926 6.4323 20.1895 6.32955 17.4223C6.28034 16.0969 6.2247 15.3819 7.15408 13.9925C7.75367 13.0962 8.78986 12.3132 9.79953 11.8117C9.14157 11.0891 8.72425 10.0931 8.72425 9.24964C8.72425 7.7196 10.0815 6.20166 11.7754 6.20166Z" stroke="black" stroke-width="1.5" stroke-linecap="round" stroke-linejoin="round"/>
<path d="M7.5 6C6.10526 6 5.1497 7.49872 5.1497 8.59067C5.1497 9.3596 5.30978 10.2323 5.84027 10.8984C4.97757 11.3453 4.07406 12.0478 3.52929 12.8568C2.65531 14.1547 2.80997 15.6052 2.80997 16.0393C2.80997 16.6705 3.35951 17.1459 4.18731 17.4655" stroke="black" stroke-width="1.5" stroke-linecap="round" stroke-linejoin="round"/>
<path d="M16.2998 6C17.6945 6 18.6501 7.49872 18.6501 8.59067C18.6501 9.3596 18.49 10.2323 17.9595 10.8984C18.8222 11.3453 19.7257 12.0478 20.2705 12.8568C21.1445 14.1547 20.9898 15.6052 20.9898 16.0393C20.9898 16.6705 20.4403 17.1459 19.6125 17.4655" stroke="black" stroke-width="1.5" stroke-linecap="round" stroke-linejoin="round"/>
</svg>
